<svg width="31" height="29" viewBox="0 0 31 29" fill="none" xmlns="http://www.w3.org/2000/svg">
<path d="M25.8333 28C26.5467 28 27.125 27.4316 27.125 26.7304C27.125 26.0292 26.5467 25.4608 25.8333 25.4608C25.1199 25.4608 24.5416 26.0292 24.5416 26.7304C24.5416 27.4316 25.1199 28 25.8333 28Z" stroke="white" stroke-width="2" stroke-linecap="round" stroke-linejoin="round"/>
<path d="M11.625 28C12.3383 28 12.9166 27.4316 12.9166 26.7304C12.9166 26.0292 12.3383 25.4608 11.625 25.4608C10.9116 25.4608 10.3333 26.0292 10.3333 26.7304C10.3333 27.4316 10.9116 28 11.625 28Z" stroke="white" stroke-width="2" stroke-linecap="round" stroke-linejoin="round"/>
<path d="M1.29163 1.33816H6.45829L9.91996 18.3383C10.0381 18.9228 10.3616 19.4478 10.8339 19.8215C11.3062 20.1952 11.8971 20.3937 12.5033 20.3823H25.0583C25.6645 20.3937 26.2554 20.1952 26.7277 19.8215C27.2 19.4478 27.5235 18.9228 27.6416 18.3383L29.7083 7.68622H7.74996" stroke="white" stroke-width="2" stroke-linecap="round" stroke-linejoin="round"/>
</svg>
